<svg width="38" height="60" viewBox="0 0 38 60" fill="none" xmlns="http://www.w3.org/2000/svg">
<path d="M20.0026 2.0997V2.02668C23.4362 2.2875 26.2107 3.87602 28.2268 5.95134C30.4342 8.22374 31.7337 11.0812 31.9938 13.4218C32.3434 16.568 31.8272 18.6561 31.2708 20.0275C30.8355 21.1004 30.8862 22.2919 31.531 23.2436C33.3957 25.9957 35.7111 30.2255 36.1395 36.2241C36.3797 39.587 36.133 42.3209 35.3062 44.7985C34.5578 47.0412 33.3351 49.0712 31.573 51.1656L31.4973 51.2555L31.4445 51.3606C31.1588 51.9295 31.2876 52.4989 31.4179 52.8747C31.5451 53.2415 31.7577 53.6507 31.9594 54.0388L31.9833 54.0847C32.0794 54.2698 32.1789 54.4614 32.2816 54.6667C32.6876 55.4788 32.9604 56.0266 33.1265 56.452C33.2803 56.8457 33.2916 57.014 33.2851 57.0868L33.0875 56.5541C33.0786 56.53 33.069 56.5049 33.0587 56.4785L32.1428 56.8362L33.0587 56.4784C32.894 56.0567 32.6225 55.5115 32.2164 54.6992L31.3873 53.041L31.3856 53.0376C31.3566 52.9801 31.3268 52.9228 31.2996 52.8705L31.2982 52.8678L30.4109 53.3289L31.2982 52.8678C31.2209 52.719 31.1316 52.4948 31.0764 52.2652C31.0168 52.017 31.0233 51.8709 31.0335 51.8274C31.0544 51.7382 31.0895 51.6497 31.1269 51.5763C31.1451 51.5406 31.1612 51.5136 31.1721 51.4969C31.1735 51.4947 31.1747 51.4929 31.1757 51.4913C33.2462 49.1593 34.4194 47.226 35.2372 44.7755C36.0601 42.3096 36.3067 39.5859 36.0669 36.2293C35.6397 30.248 33.3312 26.0304 31.4707 23.2844C30.8096 22.3087 30.7608 21.0908 31.2033 20.0001C31.7554 18.6396 32.2696 16.5636 31.9214 13.4299C31.6633 11.1068 30.3719 8.26403 28.1745 6.00207C26.1701 3.93868 23.4135 2.36029 20.0026 2.0997ZM30.2096 58.0191H20.002V57.9463H30.2096C31.1177 57.9463 31.7268 57.9453 32.1776 57.904C32.2058 57.9014 32.2327 57.8987 32.2583 57.896L32.8232 57.8344C32.761 57.8727 32.6055 57.938 32.1843 57.9765C31.7296 58.0181 31.1176 58.0191 30.2096 58.0191ZM4.94127 56.4784L5.85719 56.8362L4.94127 56.4785C4.93095 56.5049 4.92137 56.53 4.91246 56.5541L4.71485 57.0868C4.70841 57.014 4.71967 56.8457 4.87345 56.452C5.03959 56.0266 5.31241 55.4788 5.71844 54.6667C5.82108 54.4614 5.92057 54.2698 6.0167 54.0847L6.04058 54.0388C6.24228 53.6507 6.4549 53.2415 6.5821 52.8747C6.71244 52.4989 6.84116 51.9295 6.55549 51.3606L6.50273 51.2555L6.42704 51.1656C4.6649 49.0712 3.44217 47.0412 2.69377 44.7985C1.86697 42.3209 1.62026 39.587 1.86047 36.2241C2.28894 30.2255 4.60433 25.9957 6.46902 23.2436C7.11384 22.2919 7.16453 21.1004 6.72921 20.0275C6.17277 18.6561 5.65664 16.568 6.00621 13.4218C6.26629 11.0812 7.56577 8.22374 9.77324 5.95134C11.7893 3.87602 14.5638 2.2875 17.9974 2.02668V2.0997C14.5865 2.36029 11.8299 3.93868 9.82547 6.00207C7.62813 8.26403 6.33669 11.1068 6.07858 13.4299C5.73038 16.5636 6.24462 18.6396 6.79668 20.0001C7.23922 21.0908 7.19038 22.3087 6.5293 23.2844C4.66876 26.0304 2.36033 30.248 1.93309 36.2293C1.69334 39.5859 1.93994 42.3096 2.76283 44.7755C3.5812 47.2279 4.67732 49.0632 6.75971 51.4058C6.76973 51.4171 6.81147 51.4687 6.85783 51.5551C6.90285 51.6391 6.94498 51.7423 6.97012 51.8585C6.98815 51.9419 6.98716 52.0836 6.93326 52.2887C6.88099 52.4878 6.79349 52.6913 6.7018 52.8678L7.58914 53.3289L6.70179 52.8678L6.70033 52.8706C6.67312 52.9229 6.64338 52.9802 6.61439 53.0376L6.61269 53.041L5.78357 54.6992C5.37745 55.5115 5.10601 56.0567 4.94127 56.4784ZM5.81569 57.9765C5.39449 57.938 5.23899 57.8727 5.17684 57.8344L5.74171 57.896C5.76732 57.8987 5.79419 57.9014 5.82235 57.904C6.27323 57.9453 6.88228 57.9463 7.79038 57.9463H17.998V58.0191H7.79038C6.88244 58.0191 6.27041 58.0181 5.81569 57.9765ZM25.4021 14.972C25.4021 18.5066 22.5367 21.372 19.0021 21.372C15.4674 21.372 12.602 18.5066 12.602 14.972C12.602 11.4373 15.4674 8.5719 19.0021 8.5719C22.5367 8.5719 25.4021 11.4373 25.4021 14.972Z" stroke="#AD2D11" stroke-width="2"/>
<path d="M2.41962 34.8835H9.84788C10.3096 34.8835 10.5405 34.8835 10.7524 34.8608C12.0103 34.7264 13.1304 34.0049 13.773 32.9151C13.8812 32.7315 13.9767 32.5213 14.1676 32.1009L14.8056 30.6959C15.5714 29.0098 17.2522 27.927 19.1041 27.927C20.998 27.927 22.7086 29.0588 23.4492 30.8019L24.0771 32.2799C24.2675 32.728 24.3627 32.9521 24.4727 33.1471C25.1038 34.2658 26.2338 35.0135 27.5102 35.1568C27.7327 35.1818 27.9762 35.1818 28.463 35.1818H35.5845" stroke="#AD2D11" stroke-width="2"/>
</svg>
